# xmcd
#
# Track frame offsets: 
#        150
#        27652
#        56865
#        85677
#        123390
#        158992
#        192895
#        228165
#        259007
#        286730
#
# Disc length: 4254 seconds
#
# Revision: 2
# Processed by: cddbd v1.5.1PL0 Copyright (c) Steve Scherf et al.
# Submitted via: ExactAudioCopy v0.95a3
#
DISCID=83109c0a
DTITLE=Pankaj Udhas - Nasha
DYEAR=1997
DGENRE=Ghazal
TTITLE0=Sharab Cheez Hi Aisi
TTITLE1=Thodi Thodi Piya Karo
TTITLE2=Sabko Maloom Hai
TTITLE3=Ek Taraf Uska Ghar
TTITLE4=Usko Gale Lagana Saqi
TTITLE5=Na Samjho Ke Hum Pee Gaye
TTITLE6=Khuda Ka Shukr Hai
TTITLE7=Kabhi Maikhane Tak Jaate Hai
TTITLE8=Paimane Toot Gaye
TTITLE9=La Pilade Saqiya
EXTD=
EXTT0=
EXTT1=
EXTT2=
EXTT3=
EXTT4=
EXTT5=
EXTT6=
EXTT7=
EXTT8=
EXTT9=
PLAYORDER=
